<?xml version="1.0" standalone="no"?>
<!DOCTYPE svg PUBLIC "-//W3C//DTD SVG 20010904//EN"
 "http://www.w3.org/TR/2001/REC-SVG-20010904/DTD/svg10.dtd">
<svg version="1.0" xmlns="http://www.w3.org/2000/svg"
 width="260.000000pt" height="260.000000pt" viewBox="0 0 260.000000 260.000000"
 preserveAspectRatio="xMidYMid meet">
<metadata>
Created by potrace 1.11, written by Peter Selinger 2001-2013
</metadata>
<g transform="translate(0.000000,260.000000) scale(0.100000,-0.100000)"
fill="#000000" stroke="none">
<path d="M1224 2390 c-108 -22 -210 -103 -260 -207 -39 -79 -41 -206 -5 -300
l23 -62 -85 -148 c-47 -82 -93 -163 -104 -180 -10 -18 -70 -122 -133 -230 -62
-109 -123 -215 -133 -235 -15 -29 -25 -38 -46 -39 -14 0 -35 -2 -46 -4 -11 -1
-42 -6 -69 -9 -114 -14 -231 -119 -268 -240 -28 -93 -22 -209 15 -282 50 -98
162 -182 269 -202 127 -24 222 11 337 123 l77 75 532 0 532 0 11 -27 c14 -37
86 -103 145 -133 204 -102 440 -7 515 207 60 171 -4 348 -159 440 -51 30 -94
41 -187 49 -38 3 -75 7 -81 9 -6 2 -31 39 -54 82 -24 43 -115 202 -203 353
-88 151 -171 295 -185 320 -14 25 -28 50 -33 55 -4 6 4 48 17 95 48 166 13
307 -102 409 -79 70 -212 103 -320 81z m233 -848 c36 -65 125 -218 196 -342
206 -356 217 -383 184 -445 l-15 -30 -488 1 c-269 1 -498 2 -510 3 -14 1 -26
15 -42 51 -12 28 -22 56 -22 64 0 14 55 122 97 188 13 21 23 39 23 41 0 2 74
134 165 293 l165 289 42 5 c24 3 64 3 90 2 l47 -4 68 -116z"/>
</g>
</svg>
