<?xml version="1.0" encoding="UTF-8" standalone="no"?>
<svg
   xmlns:dc="http://purl.org/dc/elements/1.1/"
   xmlns:cc="http://creativecommons.org/ns#"
   xmlns:rdf="http://www.w3.org/1999/02/22-rdf-syntax-ns#"
   xmlns:svg="http://www.w3.org/2000/svg"
   xmlns="http://www.w3.org/2000/svg"
   xmlns:sodipodi="http://sodipodi.sourceforge.net/DTD/sodipodi-0.dtd"
   xmlns:inkscape="http://www.inkscape.org/namespaces/inkscape"
   inkscape:version="1.0 (4035a4fb49, 2020-05-01)"
   sodipodi:docname="logo.svg"
   id="svg1061"
   preserveAspectRatio="xMidYMid meet"
   viewBox="0 0 12000 3320"
   height="332px"
   width="1200px"
   version="1.0">
  <metadata
     id="metadata1067">
    <rdf:RDF>
      <cc:Work
         rdf:about="">
        <dc:format>image/svg+xml</dc:format>
        <dc:type
           rdf:resource="http://purl.org/dc/dcmitype/StillImage" />
        <dc:title></dc:title>
      </cc:Work>
    </rdf:RDF>
  </metadata>
  <defs
     id="defs1065" />
  <sodipodi:namedview
     inkscape:current-layer="layer101"
     inkscape:window-maximized="0"
     inkscape:window-y="0"
     inkscape:window-x="0"
     inkscape:cy="136.80451"
     inkscape:cx="478.49588"
     inkscape:zoom="0.48788568"
     showgrid="false"
     id="namedview1063"
     inkscape:window-height="874"
     inkscape:window-width="1600"
     inkscape:pageshadow="2"
     inkscape:pageopacity="0"
     guidetolerance="10"
     gridtolerance="10"
     objecttolerance="10"
     borderopacity="1"
     bordercolor="#666666"
     pagecolor="#ffffff" />
  <g
     stroke="none"
     fill="#000000"
     id="layer101">
    <path
       style="fill:#ffffff"
       id="path1032"
       d="M4507 3307 c-52 -16 -103 -60 -128 -109 -31 -60 -24 -160 14 -214 40 -58 89 -87 155 -92 l57 -4 138 -240 138 -240 -15 -39 c-57 -142 46 -294 199 -294 149 0 248 141 201 285 l-16 50 125 215 c69 118 131 227 137 240 10 22 18 25 62 25 166 1 264 163 189 311 -57 110 -189 149 -297 85 -26 -15 -56 -41 -65 -57 l-16 -29 -306 0 -306 0 -49 49 c-67 67 -132 84 -217 58z m873 -296 c11 -28 7 -39 -91 -208 -56 -98 -119 -206 -138 -240 l-36 -63 -50 0 -50 0 -130 227 c-71 124 -131 232 -133 239 -2 7 4 26 13 43 l16 31 293 0 294 0 12 -29z" />
    <path
       style="fill:#ffffff"
       id="path1034"
       d="M2410 2799 l0 -491 223 4 c206 3 226 5 271 26 74 34 108 64 141 123 26 48 30 64 30 139 0 73 -4 93 -28 142 -29 58 -80 107 -136 131 l-31 13 165 198 c91 109 165 200 165 202 0 2 -63 4 -140 4 l-140 0 -147 -191 -148 -191 -3 191 -2 191 -110 0 -110 0 0 -491z m370 -77 c41 -20 60 -53 60 -104 0 -82 -41 -117 -147 -126 l-63 -5 0 127 0 126 58 0 c34 0 71 -7 92 -18z" />
    <path
       style="fill:#ffffff"
       id="path1036"
       d="M3620 2800 l0 -490 280 0 280 0 0 100 0 100 -165 0 -165 0 0 95 0 95 160 0 160 0 0 100 0 100 -160 0 -160 0 0 95 0 95 165 0 165 0 0 100 0 100 -280 0 -280 0 0 -490z" />
    <path
       style="fill:#ffffff"
       id="path1038"
       d="M5970 2800 l0 -490 115 0 115 0 0 390 0 390 165 0 165 0 0 100 0 100 -280 0 -280 0 0 -490z" />
    <path
       style="fill:#ffffff"
       id="path1040"
       d="M7010 2800 l0 -490 115 0 115 0 0 490 0 490 -115 0 -115 0 0 -490z" />
    <path
       style="fill:#ffffff"
       id="path1042"
       d="M7850 2900 l0 -390 -115 0 -115 0 0 -100 0 -100 345 0 345 0 0 100 0 100 -115 0 -115 0 0 390 0 390 -115 0 -115 0 0 -390z" />
    <path
       style="fill:#ffffff"
       id="path1044"
       d="M9010 3072 l0 -217 -163 -245 c-90 -135 -172 -257 -181 -272 l-18 -28 134 0 134 0 102 156 103 156 77 -118 c43 -66 88 -136 101 -156 l23 -38 135 0 135 0 -18 28 c-9 15 -91 137 -181 272 l-163 245 0 217 0 218 -110 0 -110 0 0 -218z" />
    <path
       style="fill:#ffffff"
       id="path1046"
       d="M5612 2010 c-333 -42 -531 -213 -592 -510 -18 -89 -20 -140 -20 -777 l0 -683 225 0 225 0 0 633 c0 687 1 701 56 794 50 86 185 128 331 103 131 -22 197 -89 223 -229 6 -33 10 -298 10 -677 l0 -624 225 0 225 0 0 683 c0 637 -2 688 -20 777 -56 275 -236 446 -524 499 -83 15 -280 21 -364 11z" />
    <path
       style="fill:#ffffff"
       id="path1048"
       d="M7745 2010 c-91 -12 -230 -52 -319 -94 -225 -103 -427 -305 -526 -522 -54 -119 -72 -204 -77 -359 -4 -126 -2 -150 21 -240 47 -183 134 -335 270 -471 286 -286 687 -388 1096 -278 99 27 238 87 279 120 l23 20 -92 185 -93 185 -71 -37 c-115 -60 -218 -83 -356 -76 -187 8 -312 58 -428 170 -223 217 -224 569 -3 787 119 118 260 171 456 173 130 1 204 -15 320 -72 44 -22 80 -39 81 -38 17 20 183 371 179 377 -24 38 -249 129 -383 154 -102 19 -288 27 -377 16z" />
    <path
       style="fill:#ffffff"
       id="path1050"
       d="M0 1010 l0 -970 225 0 225 0 0 970 0 970 -225 0 -225 0 0 -970z" />
    <path
       style="fill:#ffffff"
       id="path1052"
       d="M930 1010 l0 -970 224 0 224 0 287 448 c158 246 331 515 384 598 l96 152 3 -599 2 -599 225 0 225 0 0 970 0 970 -226 -2 -227 -3 -154 -240 c-84 -132 -256 -400 -381 -595 l-227 -355 -3 598 -2 597 -225 0 -225 0 0 -970z" />
    <path
       style="fill:#ffffff"
       id="path1054"
       d="M3080 1010 l0 -971 368 4 c423 4 459 9 637 96 273 134 460 371 521 661 22 105 25 297 5 395 -76 379 -334 651 -719 757 -71 20 -108 22 -444 26 l-368 4 0 -972z m664 554 c143 -37 271 -142 336 -278 47 -99 62 -171 61 -290 -1 -110 -19 -186 -69 -280 -88 -168 -245 -265 -457 -282 l-85 -7 0 577 0 576 76 0 c42 0 104 -7 138 -16z" />
    <path
       style="fill:#ffffff"
       id="path1056"
       d="M8880 1010 l0 -970 560 0 560 0 0 195 0 195 -335 0 -335 0 0 190 0 190 320 0 320 0 0 195 0 195 -320 0 -320 0 0 195 0 195 335 0 335 0 0 195 0 195 -560 0 -560 0 0 -970z" />
    <path
       style="fill:#ffffff"
       id="path1058"
       d="M10450 1010 l0 -972 373 4 c341 4 378 6 448 25 189 53 338 142 470 281 391 412 332 1092 -125 1439 -81 61 -240 137 -346 164 -78 21 -113 23 -452 26 l-368 5 0 -972z m665 555 c130 -34 258 -132 322 -245 57 -100 78 -190 77 -320 -1 -96 -5 -127 -27 -187 -81 -233 -247 -358 -500 -379 l-87 -7 0 577 0 576 78 0 c43 0 104 -7 137 -15z" />
  </g>
</svg>
